<svg width="95" height="22" viewBox="0 0 95 22" fill="none" xmlns="http://www.w3.org/2000/svg">
<path d="M11.4968 9.1124C10.2339 7.84948 9.98851 5.898 9.48601 4.18411C9.26753 3.43896 8.86469 2.73685 8.27738 2.14953C6.40286 0.275011 3.35898 0.279701 1.47868 2.16C-0.401626 4.0403 -0.406316 7.08419 1.4682 8.9587C2.05551 9.54601 2.75761 9.94885 3.50275 10.1673C5.21664 10.6698 7.16813 10.9152 8.43106 12.1782C9.69399 13.4411 9.93939 15.3926 10.4419 17.1065C10.6604 17.8516 11.0632 18.5537 11.6505 19.141C13.525 21.0155 16.5689 21.0109 18.4492 19.1306C20.3295 17.2503 20.3342 14.2064 18.4597 12.3319C17.8724 11.7445 17.1703 11.3417 16.4251 11.1232C14.7112 10.6207 12.7597 10.3753 11.4968 9.1124Z" fill="black"/>
<path d="M7.25926 17.0471C7.25926 19.0517 5.63422 20.6768 3.62963 20.6768C1.62504 20.6768 0 19.0517 0 17.0471C0 15.0425 1.62504 13.4175 3.62963 13.4175C5.63422 13.4175 7.25926 15.0425 7.25926 17.0471Z" fill="black"/>
<path d="M20 4.30639C20 6.31098 18.375 7.93602 16.3704 7.93602C14.3658 7.93602 12.7407 6.31098 12.7407 4.30639C12.7407 2.3018 14.3658 0.676758 16.3704 0.676758C18.375 0.676758 20 2.3018 20 4.30639Z" fill="black"/>
<path d="M29.5211 7.15435V20.5967H26.25V1.92676H29.7915L37.4421 14.9957V1.92676H40.7132V20.5967H37.415L29.5211 7.15435Z" fill="black"/>
<path d="M55.8786 14.5423H45.5787C45.9572 16.356 47.444 17.6896 49.2012 17.6896C50.5259 17.6896 51.6884 16.9428 52.3372 15.7959H55.6083C54.7432 18.6231 52.202 20.6768 49.2012 20.6768C45.4705 20.6768 42.4698 17.5029 42.4698 13.6088C42.4698 9.71481 45.4705 6.54091 49.2012 6.54091C52.202 6.54091 54.7432 8.59461 55.6083 11.4218C55.8246 12.1152 55.9327 12.8354 55.9327 13.6088C55.9327 13.9289 55.9327 14.2223 55.8786 14.5423ZM46.0653 11.4218H52.3372C51.6884 10.2749 50.5259 9.52811 49.2012 9.52811C47.8766 9.52811 46.7141 10.2749 46.0653 11.4218Z" fill="black"/>
<path d="M68.75 6.32754L63.965 13.4755L68.75 20.5967H64.9652L62.0726 16.276L59.1529 20.5967H55.3952L60.1802 13.4755L55.3952 6.32754H59.1529L62.0726 10.6483L64.9652 6.32754H68.75Z" fill="black"/>
<circle cx="72" cy="18.6768" r="2" fill="black"/>
<path d="M94.3129 3.422C93.9263 3.80867 93.4623 4.002 92.9209 4.002C92.3796 4.002 91.9059 3.80867 91.4999 3.422C91.1133 3.016 90.9199 2.54233 90.9199 2.001C90.9199 1.45967 91.1133 0.995667 91.4999 0.609001C91.8866 0.203 92.3603 0 92.9209 0C93.4816 0 93.9553 0.203 94.3419 0.609001C94.7286 0.995667 94.9219 1.45967 94.9219 2.001C94.9219 2.54233 94.7189 3.016 94.3129 3.422ZM91.3549 20.677V6.177H94.4869V20.677H91.3549Z" fill="black"/>
<path d="M85.5131 6.17681H88.7697V20.6768H85.5131V18.5888C84.4699 20.2321 82.9736 21.0538 81.024 21.0538C79.2626 21.0538 77.7577 20.3191 76.5093 18.8498C75.2609 17.3611 74.6367 15.5535 74.6367 13.4268C74.6367 11.2808 75.2609 9.47314 76.5093 8.0038C77.7577 6.53447 79.2626 5.7998 81.024 5.7998C82.9736 5.7998 84.4699 6.6118 85.5131 8.2358V6.17681ZM78.5614 16.7618C79.331 17.6318 80.2972 18.0668 81.4601 18.0668C82.623 18.0668 83.5892 17.6318 84.3587 16.7618C85.1283 15.8725 85.5131 14.7608 85.5131 13.4268C85.5131 12.0928 85.1283 10.9908 84.3587 10.1208C83.5892 9.23147 82.623 8.7868 81.4601 8.7868C80.2972 8.7868 79.331 9.23147 78.5614 10.1208C77.7919 10.9908 77.4071 12.0928 77.4071 13.4268C77.4071 14.7608 77.7919 15.8725 78.5614 16.7618Z" fill="black"/>
</svg>
